<?xml version="1.0" encoding="UTF-8"?>
<svg id="Camada_2" data-name="Camada 2" xmlns="http://www.w3.org/2000/svg" viewBox="0 0 117.03 117.02">
  <defs>
    <style>
      .cls-1 {
        fill: #ffda2d;
      }

      .cls-2 {
        fill: #ffd150;
      }

      .cls-3 {
        fill: #ffc112;
      }

      .cls-4 {
        fill: #fdbf00;
      }

      .cls-5 {
        fill: #ff9100;
      }
    </style>
  </defs>
  <g id="Camada_1-2" data-name="Camada 1">
    <g>
      <g>
        <rect class="cls-1" x="58.51" y="14.33" width=".03" height=".01"/>
        <path class="cls-1" d="m58.51,0C26.33,0,0,26.18,0,58.51s26.33,58.51,58.51,58.51,58.52-26.18,58.52-58.51S90.84,0,58.51,0Zm.03,14.33h-.03s.03-.01.03-.01h0Z"/>
        <rect class="cls-1" x="58.51" y="14.33" width=".03" height=".01"/>
      </g>
      <g>
        <g>
          <path class="cls-4" d="m117.03,58.51c0,32.33-26.18,58.51-58.51,58.51v-14.34c24.43,0,44.18-19.75,44.18-44.18S82.94,14.34,58.52,14.34V0c32.33,0,58.51,26.18,58.51,58.51Z"/>
          <path class="cls-1" d="m14.34,58.51c0,24.43,19.89,44.18,44.18,44.18v14.34C26.33,117.02,0,90.84,0,58.51S26.33,0,58.52,0v14.34c-24.28,0-44.18,19.75-44.18,44.18Z"/>
          <path class="cls-4" d="m58.55,42.7v16.68c-4.68,0-8.34-3.66-8.34-8.34s3.66-8.34,8.34-8.34Z"/>
          <path class="cls-4" d="m58.55,14.32v22.67c-7.75,0-14.19,6.29-14.19,14.04,0,3.36,1.32,6.58,3.37,9.07,1.46,1.76,3.51,3.22,5.7,4.1,1.61.58,3.22.88,5.12.88v9.36h-.15c-3.95,0-7.9-2.49-8.19-7.9,0-.73-.29-1.46-.73-1.9-.59-.58-1.32-.88-2.19-.88-1.32,0-2.63.73-2.78,2.49,0,9.51,7.17,13.75,14.04,13.75v22.67c-24.28,0-44.18-19.75-44.18-44.18S34.27,14.32,58.55,14.32Z"/>
          <path class="cls-5" d="m58.55,59.38v-16.68c4.24,0,7.9,3.22,8.34,7.46v.88c0,4.68-3.8,8.34-8.34,8.34Z"/>
          <path class="cls-5" d="m102.73,58.5c0,24.43-19.75,44.18-44.18,44.18v-22.67c6.73,0,14.04-4.24,14.04-13.9-.15-1.61-1.61-2.34-2.78-2.34-.88,0-1.61.29-2.19.88-.44.44-.73,1.17-.73,1.9-.29,5.41-4.24,7.9-8.34,7.9v-9.36c1.76,0,3.36-.29,4.97-.88.29-.73.73-1.46,1.32-2.05,1.32-1.32,2.78-2.05,4.53-2.05,2.05-2.49,3.22-5.71,3.22-9.07v-11.12c0-1.61-1.32-2.93-2.92-2.93-1.46,0-2.78,1.17-2.78,2.63-2.49-1.76-5.41-2.63-8.34-2.63V14.32c24.43,0,44.18,19.75,44.18,44.18Z"/>
        </g>
        <path class="cls-2" d="m50.21,51.04c0,4.68,3.66,8.34,8.34,8.34v5.71c-1.9,0-3.51-.29-5.12-.88-2.19-.88-4.24-2.34-5.7-4.1-2.05-2.49-3.37-5.71-3.37-9.07,0-7.75,6.44-14.04,14.19-14.04v5.71c-4.68,0-8.34,3.8-8.34,8.34Z"/>
        <path class="cls-3" d="m72.59,39.92v11.12c0,3.36-1.17,6.58-3.22,9.07-1.76,0-3.22.73-4.53,2.05-.58.58-1.02,1.32-1.32,2.05-1.61.58-3.22.88-4.97.88v-5.71c4.53,0,8.34-3.66,8.34-8.34v-.88c-.44-4.24-4.1-7.46-8.34-7.46v-5.71c2.93,0,5.85.88,8.34,2.63,0-1.46,1.32-2.63,2.78-2.63,1.61,0,2.92,1.32,2.92,2.93Z"/>
        <path class="cls-3" d="m72.59,66.11c0,9.65-7.31,13.9-14.04,13.9v-5.56c4.1,0,8.05-2.49,8.34-7.9,0-.73.29-1.46.73-1.9.58-.58,1.32-.88,2.19-.88,1.17,0,2.63.73,2.78,2.34Z"/>
        <path class="cls-2" d="m58.55,74.44v5.56c-6.88,0-14.04-4.24-14.04-13.75.15-1.76,1.46-2.49,2.78-2.49.88,0,1.61.29,2.19.88.44.44.73,1.17.73,1.9.29,5.41,4.24,7.9,8.19,7.9h.15Z"/>
      </g>
    </g>
  </g>
</svg>